<?xml version="1.0" encoding="utf-8"?>
<!-- Generator: Adobe Illustrator 23.0.4, SVG Export Plug-In . SVG Version: 6.00 Build 0)  -->
<svg version="1.1" id="Layer_1" xmlns="http://www.w3.org/2000/svg" xmlns:xlink="http://www.w3.org/1999/xlink" x="0px" y="0px"
	 viewBox="0 0 400 64" style="enable-background:new 0 0 400 64;" xml:space="preserve">
<style type="text/css">
	.st0{fill:#5C5C5B;}
	.st1{fill:url(#SVGID_1_);}
	.st2{fill:url(#SVGID_2_);}
	.st3{fill:url(#SVGID_3_);}
	.st4{fill:url(#SVGID_4_);}
	.st5{fill:url(#SVGID_5_);}
	.st6{fill:url(#SVGID_6_);}
	.st7{fill:url(#SVGID_7_);}
	.st8{fill:url(#SVGID_8_);}
</style>
<g>
	<g>
		<path class="st0" d="M58.23,14.36c-8.43,0-15.25,6.83-15.26,15.26c0.01,8.42,6.83,15.24,15.26,15.25
			c8.44,0,15.25-6.82,15.26-15.25C73.49,21.19,66.67,14.36,58.23,14.36L58.23,14.36z M63.72,35.09c-1.42,1.41-3.34,2.27-5.49,2.27
			c-2.15,0-4.05-0.86-5.48-2.27c-1.4-1.41-2.26-3.33-2.26-5.47c0-2.16,0.86-4.07,2.26-5.48c1.42-1.41,3.33-2.27,5.48-2.27
			c2.15,0,4.07,0.86,5.48,2.27c1.42,1.41,2.26,3.32,2.27,5.48C65.98,31.77,65.14,33.68,63.72,35.09L63.72,35.09z"/>
		<path class="st0" d="M91.53,14.36c-2.83,0-5.48,0.77-7.75,2.12c0-4.78,0-9.09,0-11.11c0-5.88-7.52-5.29-7.52-5.29v29.54l0.02,0.01
			c0.01,8.42,6.83,15.24,15.26,15.24c8.43-0.01,15.25-6.82,15.25-15.25C106.79,21.19,99.96,14.36,91.53,14.36L91.53,14.36z
			 M97.01,35.09c-1.41,1.41-3.33,2.27-5.48,2.27c-2.15,0-4.06-0.86-5.47-2.27c-1.41-1.41-2.27-3.33-2.27-5.48
			c0.01-2.16,0.86-4.07,2.28-5.48c1.41-1.41,3.31-2.27,5.46-2.27c2.15,0,4.07,0.86,5.48,2.27c1.41,1.41,2.27,3.32,2.27,5.47
			C99.28,31.77,98.42,33.68,97.01,35.09L97.01,35.09z"/>
		<path class="st0" d="M140.03,29.27c-0.19-8.27-6.94-14.91-15.24-14.91c-8.43,0-15.26,6.83-15.26,15.26s6.82,15.25,15.26,15.25
			c2.82,0.01,5.48-0.77,7.76-2.11l-0.01,2.13h7.51v-6.3v-9.31H140.03z M130.26,35.09c-1.41,1.4-3.33,2.26-5.47,2.27
			c-2.16-0.01-4.07-0.87-5.48-2.27c-1.42-1.42-2.27-3.33-2.28-5.48c0.01-2.16,0.86-4.07,2.28-5.48c1.42-1.41,3.32-2.26,5.48-2.26
			c2.14,0,4.05,0.85,5.47,2.26c1.41,1.41,2.27,3.33,2.28,5.48C132.53,31.76,131.66,33.67,130.26,35.09L130.26,35.09z"/>
		<path class="st0" d="M25.16,40.6c2.81-2.73,4.57-6.55,4.57-10.8c0-3.13-0.96-6.04-2.59-8.44c3.11-1.93,2.51-6.61,2.51-6.61H15.09
			c-0.13,0-0.27-0.01-0.4-0.01c-8.32,0-15.05,6.74-15.05,15.05c0,8.31,6.73,15.04,15.06,15.06c0.65-0.01,1.95-0.01,1.95-0.01
			c1.58,0,2.97,0.63,4.01,1.66c1.04,1.04,1.67,2.43,1.67,4c0,1.59-0.63,2.97-1.67,4.01c-1.04,1.03-2.43,1.67-4.01,1.66
			c-1.57,0-2.97-0.63-4-1.66c-1.04-1.04-1.65-2.42-1.66-4.01c0-0.84,0.18-1.61,0.49-2.32l-6.75-3.05c-0.74,1.64-1.15,3.47-1.15,5.37
			c0,7.24,5.86,13.08,13.07,13.08c7.22,0,13.08-5.84,13.08-13.08C29.72,46.54,27.96,43,25.16,40.6L25.16,40.6z M20.08,35.21
			c-1.39,1.39-3.29,2.24-5.39,2.25c-2.13-0.01-4.02-0.85-5.42-2.25c-1.38-1.39-2.24-3.28-2.23-5.4c0-2.13,0.85-4.01,2.23-5.4
			c1.36-1.34,3.18-2.18,5.22-2.23h-0.01h0.01h0c0.02,0,0.21,0,0.59,0.01c1.96,0.1,3.7,0.93,5,2.22c1.4,1.4,2.24,3.28,2.24,5.4
			C22.32,31.93,21.48,33.81,20.08,35.21L20.08,35.21z"/>
		<path class="st0" d="M143.24,0.28v37.75v6.8h7.52c0,0,0-33.38,0-39.26C150.76-0.32,143.24,0.28,143.24,0.28L143.24,0.28z"/>
		<path class="st0" d="M32.62,0.28v37.75v6.8h7.52V5.57C40.14-0.32,32.62,0.28,32.62,0.28L32.62,0.28z"/>
		<linearGradient id="SVGID_1_" gradientUnits="userSpaceOnUse" x1="212.2088" y1="13.2412" x2="212.2088" y2="44.055">
			<stop  offset="0.0379" style="stop-color:#4CBDCC"/>
			<stop  offset="1" style="stop-color:#00A19A"/>
		</linearGradient>
		<path class="st1" d="M203.68,18.9c-2.98,2.98-4.47,6.59-4.47,10.83c0,4.19,1.49,7.78,4.47,10.77c2.98,2.98,6.57,4.47,10.77,4.47
			c4.15,0,7.72-1.47,10.7-4.41c0.04-0.17-1.78-2.08-5.45-5.71c-1.43,1.38-3.18,2.07-5.26,2.07c-1.99,0-3.69-0.7-5.09-2.11
			c-1.4-1.41-2.11-3.1-2.11-5.09c0-2.03,0.71-3.75,2.11-5.16c1.41-1.4,3.1-2.1,5.09-2.1c1.95,0,3.66,0.73,5.13,2.2
			c2.46-2.29,4.34-4.22,5.64-5.77c-2.98-2.99-6.58-4.48-10.77-4.48C210.25,14.42,206.66,15.91,203.68,18.9L203.68,18.9z"/>
		<linearGradient id="SVGID_2_" gradientUnits="userSpaceOnUse" x1="346.3987" y1="13.2412" x2="346.3987" y2="44.055">
			<stop  offset="0.0379" style="stop-color:#4CBDCC"/>
			<stop  offset="1" style="stop-color:#00A19A"/>
		</linearGradient>
		<path class="st2" d="M346.2,17.43c-2.23-1.89-4.82-2.83-7.75-2.83c-3.28,0-6.09,1.14-8.41,3.42c-2.32,2.28-3.51,5.04-3.55,8.28
			v18.66h8.28c0-12.62-0.02-18.79-0.06-18.53c0.04-1.1,0.43-2.02,1.15-2.76c0.72-0.74,1.61-1.11,2.66-1.11
			c2.15,0,3.4,1.07,3.75,3.22c-0.09,0.04-0.09,6.44,0,19.19h8.21V26.24c0-1.05,0.37-1.95,1.12-2.7c0.75-0.74,1.66-1.12,2.76-1.12
			c1.05,0,1.95,0.37,2.7,1.12c0.74,0.75,1.12,1.64,1.12,2.7l-0.07,18.72h8.21V26.11c0-3.2-1.2-5.95-3.58-8.25
			c-2.39-2.3-5.22-3.45-8.51-3.45C351.15,14.41,348.48,15.42,346.2,17.43L346.2,17.43z"/>
		<linearGradient id="SVGID_3_" gradientUnits="userSpaceOnUse" x1="180.6623" y1="13.2412" x2="180.6623" y2="44.055">
			<stop  offset="0.0379" style="stop-color:#4CBDCC"/>
			<stop  offset="1" style="stop-color:#00A19A"/>
		</linearGradient>
		<path class="st3" d="M175.2,35.15c-1.41-1.42-2.26-3.32-2.27-5.46c0.01-2.15,0.86-4.06,2.27-5.46c1.41-1.41,3.31-2.26,5.46-2.26
			c2.14,0,4.04,0.85,5.45,2.26c1.4,1.41,2.26,3.32,2.27,5.46c0,2.14-0.87,4.05-2.27,5.46c-1.41,1.4-3.31,2.25-5.45,2.26
			C178.5,37.4,176.6,36.55,175.2,35.15L175.2,35.15z M165.45,29.69c0,8.4,6.8,15.2,15.21,15.2c2.81,0.01,5.46-0.77,7.73-2.11
			l-0.01,2.13h7.49v-6.28v-9.28h-0.02c-0.18-8.24-6.92-14.86-15.19-14.86C172.25,14.48,165.45,21.29,165.45,29.69L165.45,29.69z"/>
		<linearGradient id="SVGID_4_" gradientUnits="userSpaceOnUse" x1="241.3399" y1="13.2412" x2="241.3399" y2="44.055">
			<stop  offset="0.0379" style="stop-color:#4CBDCC"/>
			<stop  offset="1" style="stop-color:#00A19A"/>
		</linearGradient>
		<path class="st4" d="M235.88,35.15c-1.41-1.42-2.26-3.32-2.27-5.46c0.01-2.15,0.86-4.06,2.27-5.46c1.41-1.41,3.31-2.26,5.46-2.26
			c2.13,0,4.04,0.85,5.45,2.26c1.4,1.41,2.27,3.32,2.27,5.46c0,2.14-0.87,4.05-2.27,5.46c-1.41,1.4-3.31,2.25-5.45,2.26
			C239.18,37.4,237.28,36.55,235.88,35.15L235.88,35.15z M226.13,29.69c0,8.4,6.8,15.2,15.21,15.2c2.81,0.01,5.46-0.77,7.73-2.11
			l-0.01,2.17h7.49v-6.32v-9.28h-0.02c-0.18-8.24-6.92-14.86-15.19-14.86C232.93,14.48,226.13,21.29,226.13,29.69L226.13,29.69z"/>
		<linearGradient id="SVGID_5_" gradientUnits="userSpaceOnUse" x1="274.9826" y1="13.2412" x2="274.9826" y2="44.055">
			<stop  offset="0.0379" style="stop-color:#4CBDCC"/>
			<stop  offset="1" style="stop-color:#00A19A"/>
		</linearGradient>
		<path class="st5" d="M269.49,35.09c-1.41-1.41-2.27-3.33-2.27-5.48c0-2.16,0.86-4.06,2.27-5.47c1.41-1.41,3.33-2.27,5.48-2.27
			c2.15,0,4.06,0.86,5.47,2.27c1.42,1.41,2.27,3.32,2.28,5.48c-0.01,2.14-0.86,4.07-2.27,5.47c-1.41,1.41-3.32,2.27-5.47,2.27h-0.03
			C272.81,37.36,270.9,36.5,269.49,35.09L269.49,35.09z M282.73,0.08v12.66h0v3.75c-2.27-1.35-4.92-2.13-7.75-2.12
			c-8.43,0-15.25,6.83-15.25,15.26c0,8.43,6.82,15.24,15.25,15.25c8.42-0.01,15.25-6.82,15.26-15.24l0.02,0V8.16h0
			c0-1.15,0-2.1,0-2.79c0-4.9-5.21-5.31-6.95-5.31C282.94,0.06,282.73,0.08,282.73,0.08L282.73,0.08z"/>
		<linearGradient id="SVGID_6_" gradientUnits="userSpaceOnUse" x1="384.4056" y1="22.1677" x2="384.4056" y2="22.1677">
			<stop  offset="0.0379" style="stop-color:#4CBDCC"/>
			<stop  offset="1" style="stop-color:#00A19A"/>
		</linearGradient>
		<polygon class="st6" points="384.4,22.17 384.41,22.17 384.41,22.17 		"/>
		<linearGradient id="SVGID_7_" gradientUnits="userSpaceOnUse" x1="384.6127" y1="13.2412" x2="384.6127" y2="44.055">
			<stop  offset="0.0379" style="stop-color:#4CBDCC"/>
			<stop  offset="1" style="stop-color:#00A19A"/>
		</linearGradient>
		<path class="st7" d="M392.23,14.77l0,15.31c-0.06,2.02-0.89,3.83-2.23,5.17c-1.39,1.39-3.27,2.23-5.39,2.23
			c-2.12,0.01-4-0.85-5.4-2.23c-1.38-1.39-2.22-3.26-2.23-5.37v-9.81c0-5.89-7.39-5.29-7.39-5.29v15.19h0.01
			c0.06,8.25,6.75,14.9,15.01,14.91c2.79,0,5.38-0.77,7.62-2.09v7.79h0c-0.01,1.56-0.64,2.93-1.67,3.96
			c-1.04,1.03-2.42,1.67-4.01,1.66c-1.57,0-2.97-0.63-4-1.66c-1.04-1.04-1.65-2.43-1.66-4.01c0-0.84,0.18-1.61,0.49-2.32l-6.75-3.05
			c-0.74,1.64-1.15,3.47-1.15,5.37c0,7.24,5.86,13.08,13.07,13.08c7.22,0,13.08-5.84,13.08-13.08h-0.01c0,0,0.01-26.42,0-26.41
			v-4.03c0-4.9-5.12-5.31-6.84-5.31C392.44,14.75,392.23,14.77,392.23,14.77L392.23,14.77z"/>
		<linearGradient id="SVGID_8_" gradientUnits="userSpaceOnUse" x1="308.7422" y1="13.2412" x2="308.7422" y2="44.055">
			<stop  offset="0.0379" style="stop-color:#4CBDCC"/>
			<stop  offset="1" style="stop-color:#00A19A"/>
		</linearGradient>
		<path class="st8" d="M304.04,24.48c1.4-1.4,3.1-2.1,5.09-2.1c1.58,0,3.31,0.74,4.51,1.92l-11.4,4.88
			C302.42,27.55,302.86,25.66,304.04,24.48L304.04,24.48z M298.61,19.29c-2.98,2.98-4.47,6.6-4.47,10.83
			c0,4.19,1.49,7.78,4.47,10.77c2.98,2.98,6.57,4.47,10.77,4.47c4.15,0,7.72-1.47,10.7-4.41c-2.22-2.38-2.04-2.18-5.45-5.71
			c-1.43,1.38-3.18,2.08-5.25,2.08c-1.99,0-3.69-0.7-5.09-2.11l-0.21-0.07l19.27-8.1c0,0-0.41-2.91-3.47-6.98
			c-2.07-2.75-6.3-5.26-10.5-5.26C305.19,14.81,301.6,16.3,298.61,19.29L298.61,19.29z"/>
	</g>
</g>
</svg>
